<?xml version="1.0" encoding="utf-8"?>
<!-- Generator: Adobe Illustrator 21.0.0, SVG Export Plug-In . SVG Version: 6.00 Build 0)  -->
<svg fill="000" version="1.1" id="Layer_1" xmlns="http://www.w3.org/2000/svg" xmlns:xlink="http://www.w3.org/1999/xlink" x="0px" y="0px"
	 viewBox="0 0 11.1 11" style="enable-background:new 0 0 11.1 11;" xml:space="preserve">
<style type="text/css">
	.st0{fill:#9A9A9A;}
</style>
<title>Χ2</title>
<path class="st0" d="M6.2,5.5l4.6-4.6c0.2-0.2,0.2-0.5,0-0.7S10.2,0,10,0.2L5.6,4.8L1,0.1C0.8,0,0.4,0,0.2,0.1s-0.1,0.6,0,0.8
	l4.6,4.6l-4.6,4.6c-0.2,0.2-0.2,0.5,0,0.7C0.3,11,0.5,11,0.6,11s0.3,0,0.4-0.1l4.6-4.6l4.6,4.6c0.1,0.1,0.2,0.1,0.4,0.1
	s0.3,0,0.4-0.1c0.2-0.2,0.2-0.5,0-0.7L6.2,5.5z"/>
</svg>
