<?xml version="1.0" encoding="utf-8"?>
<!-- Generator: Adobe Illustrator 23.1.1, SVG Export Plug-In . SVG Version: 6.00 Build 0)  -->
<svg version="1.1" id="Export_Layer" xmlns="http://www.w3.org/2000/svg" xmlns:xlink="http://www.w3.org/1999/xlink" x="0px"
	 y="0px" viewBox="0 0 1048.8 1048.8" style="enable-background:new 0 0 1048.8 1048.8;" xml:space="preserve">
<style type="text/css">
	.st0{fill:#fff;}
</style>
<g id="Group_x5F_904">
	<path class="st0" d="M262.7,802.7h118v82H272.5L262.7,802.7z M252.9,720.7h127.9v-82H243.1L252.9,720.7z M462.7,884.7h122.9v-82
		H462.7V884.7z M462.7,720.7h122.9v-82H462.7V720.7z M1048.8,501.2h-62l-49.2,438.3c-7,62.3-59.5,109.3-122.1,109.3H236.3
		c-62.2,0-114.6-46.6-122-108.4L61.7,501.2H0v-82h408.3c4.8-13.5,11.8-25.9,20.7-36.8L222.8,42.6l70-42.6L499,339.7
		c8.1-1.7,16.5-2.6,25.1-2.6c53.4,0,98.9,34.3,115.9,82h408.8V501.2z M524.1,419.2c-22.6,0-41,18.4-41,41c0,22.6,18.4,41,41,41
		c22.6,0,41-18.4,41-41C565.1,437.6,546.7,419.2,524.1,419.2L524.1,419.2z M904.4,501.2H640c-16.9,47.7-62.5,82-115.9,82
		c-53.4,0-99-34.3-115.9-82h-264l51.4,429.4c2.5,20.6,20,36.1,40.7,36.1h579.2c20.9,0,38.4-15.7,40.7-36.4L904.4,501.2z
		 M781.5,884.7l9-80v-2H667.5v82H781.5z M809.1,638.6H667.5v82h132.3L809.1,638.6z M809.1,638.6"/>
</g>
</svg>
