<?xml version="1.0" encoding="UTF-8"?>
<svg width="12px" height="22px" viewBox="0 0 12 22" version="1.1" xmlns="http://www.w3.org/2000/svg" xmlns:xlink="http://www.w3.org/1999/xlink">
    <!-- Generator: sketchtool 60 (101010) - https://sketch.com -->
    <title>FF5CC7AA-C399-49CC-82DC-03775DE1CF9B</title>
    <desc>Created with sketchtool.</desc>
    <g id="Symbols" stroke="none" stroke-width="1" fill="none" fill-rule="evenodd">
        <g id="ICON/SOCIAL/FACEBOOK" transform="translate(-9.000000, 0.000000)" fill="#000000">
            <path d="M20.5481152,0.00457746845 L17.6698609,0 C14.4362408,0 12.3465335,2.12508973 12.3465335,5.41422968 L12.3465335,7.91055211 L9.4525775,7.91055211 C9.20250534,7.91055211 9,8.11150297 9,8.35937289 L9,11.9762596 C9,12.2241295 9.20273625,12.4248515 9.4525775,12.4248515 L12.3465335,12.4248515 L12.3465335,21.5514081 C12.3465335,21.799278 12.5490389,22 12.799111,22 L16.5749004,22 C16.8249726,22 17.0274779,21.7990491 17.0274779,21.5514081 L17.0274779,12.4248515 L20.4111874,12.4248515 C20.6612596,12.4248515 20.8637649,12.2241295 20.8637649,11.9762596 L20.8651504,8.35937289 C20.8651504,8.24035871 20.8173527,8.12637974 20.7326098,8.04215432 C20.647867,7.9579289 20.5324136,7.91055211 20.412342,7.91055211 L17.0274779,7.91055211 L17.0274779,5.79438844 C17.0274779,4.77727495 17.2720083,4.26093651 18.6087283,4.26093651 L20.5476534,4.26024989 C20.7974947,4.26024989 21,4.05929902 21,3.81165798 L21,0.453169377 C21,0.205757207 20.7977256,0.0050352153 20.5481152,0.00457746845 Z" id="Path"></path>
        </g>
    </g>
</svg>