<?xml version="1.0" encoding="UTF-8"?>
<svg width="26px" height="22px" viewBox="0 0 26 22" version="1.1" xmlns="http://www.w3.org/2000/svg" xmlns:xlink="http://www.w3.org/1999/xlink">
    <!-- Generator: sketchtool 60 (101010) - https://sketch.com -->
    <title>C45FF6FC-B72F-4D68-853A-EB33B3BBF7E3</title>
    <desc>Created with sketchtool.</desc>
    <g id="Symbols" stroke="none" stroke-width="1" fill="none" fill-rule="evenodd">
        <g id="ICON/SOCIAL/TWITTER" fill="#000000">
            <g id="icon_twitter">
                <path d="M26,2.60294618 C25.043054,3.0446553 24.0162647,3.34421738 22.9374329,3.47795598 C24.0389935,2.79080864 24.8822106,1.70089657 25.281855,0.406172365 C24.2485658,1.04251497 23.1080051,1.5045814 21.8927155,1.75506468 C20.9195407,0.673605314 19.5352934,0 17.9999314,0 C15.0543645,0 12.6660566,2.48788318 12.6660566,5.55457748 C12.6660566,5.98951559 12.7131711,6.41431931 12.8041712,6.82053593 C8.37201368,6.58863974 4.44188634,4.37664221 1.81150623,1.01543091 C1.35170482,1.83459091 1.0901325,2.78908269 1.0901325,3.8079655 C1.0901325,5.73566892 2.03246411,7.43656549 3.46221154,8.43168336 C2.5881088,8.40123592 1.76600615,8.15075264 1.04628929,7.73440162 L1.04628929,7.80379346 C1.04628929,10.4947628 2.88545243,12.7406154 5.32410347,13.2517606 C4.87730209,13.3770023 4.40615753,13.4463941 3.9187417,13.4463941 C3.5743261,13.4463941 3.24125366,13.4108574 2.91468123,13.3431472 C3.59378365,15.5517814 5.562947,17.1578837 7.89602597,17.2019174 C6.07147724,18.6912751 3.77089832,19.5764193 1.2721328,19.5764193 C0.841602682,19.5764193 0.417530094,19.5493353 0,19.5002565 C2.3606934,21.079319 5.16330255,22 8.17548395,22 C17.9870163,22 23.3501623,13.5344173 23.3501623,6.19264603 L23.3322767,5.47336956 C24.3801804,4.69479139 25.2867407,3.71657893 26,2.60294618 Z" id="Path"></path>
            </g>
        </g>
    </g>
</svg>