<?xml version="1.0" encoding="utf-8"?>
<!-- Generator: Adobe Illustrator 23.1.1, SVG Export Plug-In . SVG Version: 6.00 Build 0)  -->
<svg version="1.1" id="Capa_1" xmlns="http://www.w3.org/2000/svg" xmlns:xlink="http://www.w3.org/1999/xlink" x="0px" y="0px"
	 viewBox="408 143 35 29" style="enable-background:new 408 143 35 29;" xml:space="preserve">
<g>
	<path fill="#e66712" d="M440.5,145.3c-1.7-1.6-3.9-2.3-6.9-2.3c-0.8,0-1.6,0.1-2.5,0.4c-0.8,0.3-1.6,0.6-2.3,1.1c-0.7,0.5-1.3,0.9-1.9,1.3
		c-0.5,0.4-1,0.8-1.5,1.3c-0.5-0.5-1-0.9-1.5-1.3c-0.5-0.4-1.1-0.8-1.9-1.3c-0.7-0.5-1.5-0.8-2.3-1.1c-0.8-0.3-1.7-0.4-2.5-0.4
		c-2.9,0-5.2,0.8-6.9,2.3c-1.7,1.6-2.5,3.7-2.5,6.5c0,0.8,0.2,1.7,0.5,2.6c0.3,0.9,0.7,1.7,1,2.3c0.4,0.6,0.8,1.2,1.3,1.8
		c0.5,0.6,0.9,1,1.1,1.2c0.2,0.2,0.4,0.4,0.5,0.5l12.2,11.4c0.2,0.2,0.5,0.3,0.9,0.3c0.3,0,0.6-0.1,0.9-0.3l12.2-11.3
		c3-2.9,4.5-5.7,4.5-8.5C443,149.1,442.2,146.9,440.5,145.3z M436.8,158.6l-11.3,10.6l-11.3-10.6c-2.4-2.4-3.7-4.6-3.7-6.7
		c0-1,0.1-1.9,0.4-2.7c0.3-0.8,0.6-1.4,1.1-1.9c0.4-0.5,1-0.8,1.6-1.1c0.6-0.3,1.2-0.5,1.8-0.6c0.6-0.1,1.2-0.2,1.9-0.2
		c0.7,0,1.4,0.2,2.2,0.5c0.8,0.3,1.5,0.7,2.2,1.2c0.7,0.5,1.2,0.9,1.7,1.4c0.5,0.4,0.9,0.8,1.2,1.2c0.2,0.3,0.6,0.4,1,0.4
		c0.4,0,0.7-0.1,1-0.4c0.3-0.4,0.7-0.7,1.2-1.2c0.5-0.4,1-0.9,1.7-1.4c0.7-0.5,1.4-0.9,2.2-1.2c0.8-0.3,1.5-0.5,2.2-0.5
		c0.7,0,1.3,0.1,1.9,0.2c0.6,0.1,1.2,0.3,1.8,0.6c0.6,0.3,1.2,0.7,1.6,1.1c0.4,0.5,0.8,1.1,1.1,1.9c0.3,0.8,0.4,1.7,0.4,2.7
		C440.5,154,439.3,156.2,436.8,158.6z"/>
</g>
</svg>
